<?xml version="1.0" encoding="iso-8859-1"?>
<!-- Generator: Adobe Illustrator 19.0.0, SVG Export Plug-In . SVG Version: 6.00 Build 0)  -->
<svg version="1.1" id="Layer_1" xmlns="http://www.w3.org/2000/svg" xmlns:xlink="http://www.w3.org/1999/xlink" x="0px" y="0px"
	 viewBox="0 0 512.002 512.002" style="enable-background:new 0 0 512.002 512.002;" xml:space="preserve">
<g>
	<path style="fill:#FBD971;" d="M503.322,260.34c0,138.986-112.675,251.661-251.661,251.661S0,399.326,0,260.34
		S112.675,8.679,251.661,8.679S503.322,121.354,503.322,260.34"/>
	<g>
		<path style="fill:#F29C1F;" d="M355.797,190.916c-23.925,0-43.39-19.465-43.39-43.39c0-4.79,3.879-8.678,8.678-8.678
			c4.799,0,8.678,3.888,8.678,8.678c0,14.353,11.681,26.034,26.034,26.034c14.353,0,26.034-11.681,26.034-26.034
			c0-4.79,3.879-8.678,8.678-8.678c4.799,0,8.678,3.888,8.678,8.678C399.186,171.451,379.722,190.916,355.797,190.916"/>
		<path style="fill:#F29C1F;" d="M147.525,190.916c-23.925,0-43.39-19.465-43.39-43.39c0-4.79,3.879-8.678,8.678-8.678
			c4.799,0,8.678,3.888,8.678,8.678c0,14.353,11.681,26.034,26.034,26.034c14.353,0,26.034-11.681,26.034-26.034
			c0-4.79,3.879-8.678,8.678-8.678c4.799,0,8.678,3.888,8.678,8.678C190.915,171.451,171.451,190.916,147.525,190.916"/>
	</g>
	<path style="fill:#C03A2B;" d="M158.442,375.876c-24.272,5.988-44.405-18.215-34.365-41.108
		c21.469-48.926,70.352-83.109,127.202-83.109c57.882,0,107.494,35.423,128.338,85.764c9.034,21.799-11.064,44.613-34,39.042
		C303.286,366.2,234.852,357.018,158.442,375.876"/>
	<path style="fill:#4482C3;" d="M173.559,372.498v69.25c0,9.589,7.775,17.356,17.356,17.356s17.356-7.767,17.356-17.356v-17.356
		c0,9.589,7.775,17.356,17.356,17.356s17.356-7.767,17.356-17.356v-59.349C221.201,365.4,197.875,367.578,173.559,372.498"/>
	<g>
		<path style="fill:#24AE5F;" d="M390.508,130.17h-34.712c-3.341,0-6.37-1.909-7.819-4.92c-1.441-3.003-1.041-6.578,1.041-9.181
			L372.45,86.78h-16.653c-4.799,0-8.678-3.888-8.678-8.678s3.879-8.678,8.678-8.678h34.712c3.341,0,6.37,1.909,7.819,4.92
			c1.441,3.003,1.041,6.578-1.041,9.181l-23.431,29.288h16.653c4.799,0,8.678,3.888,8.678,8.678S395.307,130.17,390.508,130.17"/>
		<path style="fill:#24AE5F;" d="M503.322,69.425h-52.068c-3.506,0-6.682-2.117-8.018-5.354c-1.345-3.246-0.599-6.977,1.883-9.459
			l37.255-37.255h-31.119c-4.799,0-8.678-3.888-8.678-8.678s3.879-8.678,8.678-8.678h52.068c3.506,0,6.682,2.117,8.018,5.354
			c1.345,3.246,0.599,6.977-1.883,9.459l-37.255,37.255h31.119c4.799,0,8.678,3.888,8.678,8.678S508.121,69.425,503.322,69.425"/>
	</g>
</g>
<g>
</g>
<g>
</g>
<g>
</g>
<g>
</g>
<g>
</g>
<g>
</g>
<g>
</g>
<g>
</g>
<g>
</g>
<g>
</g>
<g>
</g>
<g>
</g>
<g>
</g>
<g>
</g>
<g>
</g>
</svg>
