<svg id="Capa_1" enable-background="new 0 0 512 512" height="512" viewBox="0 0 512 512" width="512" xmlns="http://www.w3.org/2000/svg"><g><path d="m111 177c0 74.439 65.047 135 145 135 79.954 0 145-60.561 145-135s-65.046-135-145-135c-79.953 0-145 60.561-145 135zm210-45c8.284 0 15 6.716 15 15s-6.716 15-15 15-15-6.716-15-15 6.716-15 15-15zm-93.335 25.586c7.063-3.812 16.067-5.586 28.335-5.586 12.269 0 21.272 1.774 28.335 5.586 10.747 5.798 16.665 16.243 16.665 29.414 0 19.555-12.541 36.228-30 42.42v27.58c0 8.284-6.716 15-15 15s-15-6.716-15-15v-27.58c-17.459-6.192-30-22.865-30-42.42 0-13.171 5.918-23.616 16.665-29.414zm-36.665-25.586c8.284 0 15 6.716 15 15s-6.716 15-15 15-15-6.716-15-15 6.716-15 15-15z"/><path d="m256 202c8.271 0 15-6.729 15-15 0-1.682-.279-2.508-.377-2.665-.008-.006-2.249-2.335-14.623-2.335s-14.615 2.329-14.636 2.353c-.084.14-.364.966-.364 2.647 0 8.271 6.729 15 15 15z"/><ellipse cx="118.654" cy="449.344" rx="60" ry="70" transform="matrix(.5 -.866 .866 .5 -329.817 327.431)"/><ellipse cx="393.346" cy="449.344" rx="70" ry="60" transform="matrix(.866 -.5 .5 .866 -171.972 256.869)"/><path d="m348.347 371.401c9.931-5.734 20.565-9.843 31.471-12.24-5.114-16.975-11.446-34.145-18.597-50.405-29.306 20.858-65.757 33.244-105.221 33.244s-75.915-12.386-105.221-33.244c-7.15 16.258-13.482 33.428-18.596 50.404 10.906 2.397 21.54 6.507 31.471 12.24 22.391 12.928 39.216 32.811 47.376 55.985 8.613 24.458 6.508 50.687-5.774 71.958-.958 1.66-1.97 3.278-3.031 4.854 16.854 5.129 35.062 7.803 53.775 7.803s36.921-2.674 53.775-7.803c-1.061-1.575-2.073-3.194-3.031-4.854-12.282-21.272-14.387-47.5-5.774-71.958 8.161-23.174 24.986-43.057 47.377-55.984zm-77.347 105.599c0 8.284-6.716 15-15 15s-15-6.716-15-15v-30c0-8.284 6.716-15 15-15s15 6.716 15 15zm0-80c0 8.284-6.716 15-15 15s-15-6.716-15-15v-20c0-8.284 6.716-15 15-15s15 6.716 15 15z"/><path d="m421.287 122.793c11.783-13.931 18.713-31.839 18.713-50.757 0-39.721-32.315-72.036-72.036-72.036-19.87 0-38.478 8.219-51.826 22.039 49.076 16.984 87.904 54.141 105.149 100.754z"/><path d="m195.862 22.039c-13.349-13.82-31.957-22.039-51.826-22.039-39.721 0-72.036 32.315-72.036 72.036 0 18.918 6.931 36.827 18.712 50.758 17.246-46.613 56.074-83.77 105.15-100.755z"/><path d="m89.195 303.808c-11.272 19.523-15.321 40.63-12.078 58.405 7.68-2.742 15.876-4.497 24.415-5.186 6.575-23.106 15.4-46.806 25.512-68.607-4.328-4.45-8.398-9.125-12.194-14.002-9.818 7.34-18.705 17.351-25.655 29.39z"/><path d="m397.156 274.41c-3.798 4.879-7.869 9.557-12.199 14.009 10.113 21.803 18.938 45.503 25.512 68.607 8.539.689 16.736 2.444 24.415 5.187 3.243-17.775-.807-38.882-12.079-58.405-6.952-12.042-15.834-22.056-25.649-29.398z"/></g></svg>