<svg height="512" viewBox="0 0 512 512" width="512" xmlns="http://www.w3.org/2000/svg"><path d="m248 51.53v-19.14a135.88 135.88 0 0 0 -28.523 4.675l8.456 16.905a148.66 148.66 0 0 1 20.067-2.44z"/><path d="m211.958 57.8-7.8-15.59a135.157 135.157 0 0 0 -25 13.63l10.677 10.68a145.4 145.4 0 0 1 22.123-8.72z"/><path d="m175.213 74.523-8.734-8.732c-2.252 1.972-4.534 3.9-6.674 6.037a134.876 134.876 0 0 0 -9.7 10.96l6.011 6.01a146.993 146.993 0 0 1 19.097-14.275z"/><path d="m292.6 36.976a136.655 136.655 0 0 0 -28.6-4.7v19.255a149.586 149.586 0 0 1 20.076 2.442z"/><path d="m375.539 103.311c-1.346-2.49-2.749-4.931-4.23-7.311l-3.965 3.965c2.176 2.331 4.336 4.7 6.408 7.251.609-1.296 1.139-2.627 1.787-3.905z"/><path d="m332.913 55.773a134.681 134.681 0 0 0 -25.061-13.53l-7.802 15.557a145.462 145.462 0 0 1 22.113 8.72z"/><path d="m361.981 82.7a135.168 135.168 0 0 0 -16.354-17.019l-8.84 8.839a148.6 148.6 0 0 1 19.1 14.274z"/><path d="m382.977 287.832a30.055 30.055 0 0 1 -35.219-35.394l5.287-26.445c-4.531.284-9.083.46-13.647.46a215.6 215.6 0 0 1 -36.773-3.129l2.75-15.765a200.72 200.72 0 0 0 50.944 2.059l3.681-18.411v-13.8c-18.054-9.649-39.874-11.986-62.031-6.372l-3.938-15.508c23.267-5.891 46.336-4.236 66.38 4.35a144.217 144.217 0 0 1 6.442-35.151 130.723 130.723 0 0 0 -12.986-15.863c-1.109-1.183-2.094-2.175-3.164-3.172a133.094 133.094 0 0 0 -30.695-22.386 129.955 129.955 0 0 0 -33.281-12.461 134.647 134.647 0 0 0 -61.36-.02 130.08 130.08 0 0 0 -33.328 12.453 132.851 132.851 0 0 0 -30.609 22.289c-.805.707-1.2 1.122-1.618 1.532-.492.5-.976.98-1.406 1.461a133.968 133.968 0 0 0 -13.259 16.17 144.279 144.279 0 0 1 6.442 35.148c20.048-8.589 43.126-10.251 66.38-4.35l-3.938 15.508c-22.157-5.607-43.971-3.269-62.031 6.374v13.8l3.529 17.652a202.861 202.861 0 0 0 59.1-1.3l2.75 15.758a217 217 0 0 1 -37.211 3.184c-7.148 0-14.267-.476-21.34-1.168l5.418 27.1a30.049 30.049 0 0 1 -35.219 35.394c6.289 11.52 25.915 47.461 37.469 68.449a28.372 28.372 0 0 1 2.174 22.4c1.381 1.657 2.717 3.343 4.193 4.95a111.047 111.047 0 0 0 37.758 27.457 112.292 112.292 0 0 0 90.781 0 110.982 110.982 0 0 0 37.684-27.385c1.531-1.668 2.883-3.372 4.289-5.061a28.169 28.169 0 0 1 2.133-22.353c11.562-20.993 31.18-56.934 37.469-68.454zm-134.977-111.832h16v88h-16zm45.031 135.43-2.109-.844c-21.531-8.617-48.313-8.613-69.844 0l-2.109.848-5.938-14.86 2.11-.843c25.265-10.11 56.453-10.114 81.718 0l2.11.84z"/><path d="m416 32v40a8 8 0 0 1 -2.344 5.656 127.74 127.74 0 0 0 -37.656 90.91v23.434a8.21 8.21 0 0 1 -.156 1.57l-12.4 62.008a14.058 14.058 0 0 0 8.563 15.8 14.052 14.052 0 0 0 18.781-9.352c.031-.113.117-.191.152-.3l-.058-.018 25.492-80.137 15.25 4.852-25.434 79.96-6.471 23.722a8.057 8.057 0 0 1 -.7 1.727s-25.585 46.9-39.5 72.168a13.087 13.087 0 0 0 13.641 18.941 12.227 12.227 0 0 0 8.2-5.5l59.36-92.911 38.053-114.13a24.053 24.053 0 0 0 1.227-7.591v-130.809z"/><path d="m144.656 99.97-3.978-3.977c-1.49 2.389-2.866 4.851-4.209 7.337.645 1.273 1.173 2.6 1.779 3.888 2.06-2.533 4.226-4.906 6.408-7.248z"/><path d="m320 419.537a130.069 130.069 0 0 1 -12.1 6.17 127.786 127.786 0 0 1 -103.781 0 130.018 130.018 0 0 1 -12.119-6.173v19.185a163.835 163.835 0 0 1 -5.3 41.281h138.6a163.835 163.835 0 0 1 -5.3-41.281z"/><path d="m112.977 291.832a8.057 8.057 0 0 1 -.7-1.727l-6.471-23.722-25.431-79.957 15.25-4.852 25.492 80.137-.058.018c.035.111.121.189.152.3a14.057 14.057 0 0 0 18.781 9.356 14.061 14.061 0 0 0 8.563-15.809l-12.4-62.008a8.21 8.21 0 0 1 -.155-1.568v-23.43a127.742 127.742 0 0 0 -37.656-90.914 8 8 0 0 1 -2.344-5.656v-40h-64v130.809a23.9 23.9 0 0 0 1.234 7.589l38.039 114.129 59.36 92.911a12.209 12.209 0 0 0 8.2 5.5 12.36 12.36 0 0 0 9.609-2.269c5.586-4.2 7.117-11.078 4.032-16.672-13.912-25.263-39.497-72.165-39.497-72.165z"/></svg>